<svg width="34" height="33" viewBox="0 0 34 33" fill="none" xmlns="http://www.w3.org/2000/svg">
<rect x="0.900024" y="0.85714" width="33.0014" height="32" rx="8" fill="url(#paint0_linear_58006_282896)"/>
<path d="M29.9743 17.2662C29.9076 16.4622 29.7741 15.6583 29.5655 14.8831C29.3611 14.1122 29.0899 13.3535 28.752 12.6362C28.4183 11.9229 28.022 11.2344 27.5714 10.5912C27.125 9.95215 26.6161 9.3502 26.0654 8.80185C25.5189 8.25763 24.9223 7.75876 24.2924 7.32173C23.6667 6.88882 22.9992 6.50539 22.3108 6.18793C21.6267 5.87046 20.9133 5.61484 20.1874 5.42519C19.4699 5.23553 18.7315 5.10772 17.9931 5.04588C17.263 4.98404 16.5205 4.98404 15.7946 5.05C15.0729 5.11597 14.3553 5.24378 13.6628 5.42931C12.9745 5.61484 12.2986 5.86222 11.6604 6.16319C11.0263 6.46004 10.413 6.81461 9.84566 7.21453C9.28248 7.61033 8.75267 8.05973 8.26875 8.54623C7.78899 9.02861 7.35513 9.55222 6.97133 10.1088C6.5917 10.6572 6.25796 11.2426 5.9868 11.8446C5.71564 12.4383 5.49454 13.0608 5.33601 13.6957C5.17748 14.3224 5.07319 14.9615 5.0273 15.6005C4.98141 16.2313 4.99393 16.8704 5.06067 17.4971C5.12742 18.1196 5.2484 18.7339 5.42362 19.3276C5.59466 19.9172 5.8241 20.4944 6.09527 21.0387C6.36643 21.5788 6.68348 22.0982 7.04642 22.5806C7.40102 23.0589 7.80151 23.5083 8.23537 23.9123C8.66506 24.3122 9.12812 24.6792 9.62039 24.9967C10.1043 25.31 10.6174 25.5862 11.1472 25.8089C11.6729 26.0315 12.2152 26.2088 12.7659 26.3325C13.3124 26.4562 13.8672 26.5345 14.4221 26.5634C14.9727 26.5922 15.5234 26.5716 16.0657 26.5015C16.5997 26.4355 17.1295 26.3201 17.6427 26.1634C18.1474 26.0068 18.6397 25.8047 19.1028 25.5656C19.5617 25.3265 19.9997 25.0503 20.4085 24.7369C20.809 24.4277 21.1845 24.0855 21.5224 23.7144C21.8561 23.3475 22.1565 22.9517 22.4193 22.5394C22.6779 22.1312 22.899 21.6983 23.0743 21.253C23.2495 20.816 23.3871 20.3584 23.4831 19.9007C23.5749 19.4472 23.6291 18.9854 23.6374 18.5278C23.6458 18.0784 23.6166 17.6249 23.5457 17.1796C23.4748 16.7426 23.3663 16.3138 23.2203 15.8974C23.0743 15.4892 22.8949 15.0934 22.6821 14.7224C22.4735 14.3554 22.2274 14.0091 21.9562 13.6834C21.6892 13.3659 21.3931 13.0732 21.076 12.8134C20.7631 12.5578 20.4294 12.3269 20.0748 12.129C19.7285 11.9353 19.3656 11.7745 18.9943 11.6467C18.6272 11.523 18.2517 11.4281 17.8721 11.3704C17.5008 11.3127 17.1212 11.288 16.7499 11.3003C16.3828 11.3086 16.0157 11.3539 15.6611 11.4281C15.3148 11.5024 14.9686 11.6054 14.6432 11.7374C14.3219 11.8693 14.0132 12.0301 13.7254 12.2115C13.4417 12.3929 13.1747 12.5991 12.9328 12.8258C12.695 13.0485 12.478 13.2917 12.2861 13.5514C12.0984 13.8071 11.9357 14.0751 11.8022 14.3554C11.6687 14.6317 11.5644 14.9203 11.4852 15.2089C11.4101 15.4933 11.36 15.7861 11.3391 16.0788C11.3183 16.3633 11.3266 16.6519 11.36 16.9281C11.3934 17.2002 11.4518 17.4723 11.5352 17.7362C11.6187 17.9918 11.7229 18.2392 11.8523 18.466C11.9774 18.6927 12.1234 18.9071 12.2903 19.105C12.453 19.2988 12.6324 19.472 12.8243 19.6286C13.012 19.7812 13.2164 19.9131 13.4292 20.0244C13.6378 20.1316 13.8547 20.2182 14.08 20.2842C14.2969 20.346 14.5222 20.3872 14.7433 20.4037C14.9644 20.4202 15.1813 20.4161 15.3983 20.3872C15.611 20.3584 15.8154 20.3089 16.0157 20.2388C16.2117 20.1687 16.3953 20.078 16.5622 19.9749C16.729 19.8678 16.8876 19.7441 17.0294 19.6039C17.1671 19.4637 17.2839 19.3112 17.384 19.1462C17.4841 18.9813 17.5592 18.8082 17.6135 18.6268C17.6677 18.4453 17.6969 18.2557 17.7011 18.0743C17.7011 17.8846 17.6802 17.695 17.6343 17.5136C17.5842 17.328 17.505 17.1508 17.4049 16.9982C17.3006 16.8333 17.1671 16.6849 17.0169 16.5653C16.8625 16.4375 16.6873 16.3427 16.4996 16.2726C16.3119 16.2066 16.1116 16.1695 15.9114 16.1695C15.6944 16.1695 15.49 16.2272 15.3148 16.3262C14.9978 16.5035 14.6098 16.4911 14.3428 16.252L14.2635 16.1777C13.9965 15.9386 13.934 15.5428 14.1217 15.2336C14.372 14.8254 14.8226 14.3018 15.5735 13.9637C15.7612 13.8813 15.9656 13.8236 16.17 13.7823C16.3786 13.737 16.5997 13.7122 16.8166 13.7081C17.0419 13.704 17.2714 13.7164 17.5008 13.7535C17.7344 13.7906 17.968 13.8483 18.1933 13.9266C18.4269 14.005 18.6564 14.108 18.8733 14.2317C19.0986 14.3554 19.3114 14.5038 19.5116 14.6688C19.716 14.8378 19.9079 15.0275 20.0831 15.2336C20.2625 15.4439 20.421 15.6747 20.5629 15.918C20.7047 16.1654 20.8257 16.4292 20.9216 16.7014C21.0218 16.9817 21.0927 17.2703 21.1427 17.5672C21.1928 17.8681 21.2137 18.1774 21.2053 18.4866C21.197 18.804 21.1636 19.1215 21.0969 19.4348C21.0301 19.7523 20.9342 20.0698 20.8132 20.379C20.688 20.6923 20.5337 20.9974 20.3501 21.286C20.1666 21.5788 19.9538 21.8591 19.716 22.1189C19.474 22.3827 19.2071 22.6301 18.9192 22.8486C18.6272 23.0754 18.3101 23.2733 17.9764 23.4464C17.6385 23.6196 17.2797 23.768 16.9126 23.8793C16.5371 23.9948 16.1492 24.0772 15.757 24.1267C15.3565 24.1762 14.9519 24.1927 14.5472 24.1721C14.1342 24.1515 13.7212 24.0937 13.3166 24.003C12.9036 23.9082 12.4989 23.7763 12.1067 23.6114C11.7104 23.4423 11.3225 23.2362 10.9595 23.0012C10.5882 22.762 10.2378 22.4858 9.91241 22.1807C9.58284 21.8715 9.27831 21.5334 9.00714 21.1665C8.73181 20.7954 8.48568 20.3996 8.28126 19.9873C8.07267 19.5668 7.89746 19.1256 7.76396 18.6721C7.63047 18.2145 7.53452 17.7362 7.48446 17.2579C7.43022 16.7714 7.42188 16.2767 7.45943 15.7861C7.49697 15.2872 7.57624 14.7883 7.70139 14.3018C7.82654 13.8071 8.00175 13.3206 8.21451 12.8506C8.43144 12.3764 8.69009 11.9188 8.99046 11.4859C9.29499 11.0488 9.63708 10.6324 10.0167 10.2531C10.4005 9.86556 10.8219 9.51099 11.2682 9.19765C11.7229 8.88019 12.211 8.59571 12.7158 8.35658C13.2289 8.11745 13.7671 7.91955 14.3178 7.77112C14.8768 7.61858 15.4525 7.51963 16.0282 7.46603C16.6122 7.41243 17.2088 7.41243 17.8012 7.46191C18.3977 7.51138 18.9943 7.61445 19.5783 7.77112C20.1666 7.9278 20.7464 8.13394 21.3013 8.38956C21.8603 8.64931 22.4068 8.95852 22.9157 9.31309C23.4289 9.67179 23.917 10.0758 24.3633 10.5211C24.8139 10.9705 25.2311 11.4611 25.594 11.9847C25.9653 12.5125 26.2907 13.0773 26.566 13.6669C26.8413 14.2606 27.0666 14.8831 27.2335 15.5181C27.4045 16.1571 27.5172 16.8209 27.5672 17.4847C27.6215 18.1567 27.6173 18.837 27.5505 19.5091C27.4838 20.1893 27.3545 20.8696 27.1709 21.5334C26.9832 22.2013 26.7329 22.861 26.4283 23.4877C26.1196 24.1226 25.7525 24.7369 25.3353 25.31C24.9223 25.879 24.4551 26.4191 23.9462 26.9097C23.4914 27.3508 23.4205 28.0888 23.8335 28.5712C24.0755 28.8557 24.4217 29 24.768 29C25.0725 29 25.3812 28.8887 25.619 28.6578C26.2406 28.06 26.8121 27.4044 27.3169 26.7077C27.8175 26.0191 28.2597 25.2853 28.6269 24.5225C28.994 23.768 29.2943 22.9764 29.5196 22.1725C29.7449 21.3767 29.8992 20.5563 29.9785 19.7358C30.0578 18.9236 30.0661 18.099 29.9994 17.2868L29.9743 17.2662Z" fill="white"/>
<defs>
<linearGradient id="paint0_linear_58006_282896" x1="17.4007" y1="32.8571" x2="17.4007" y2="0.85714" gradientUnits="userSpaceOnUse">
<stop stop-color="#43DDEB"/>
<stop offset="1" stop-color="#00D77C"/>
</linearGradient>
</defs>
</svg>
