<svg width="32" height="32" viewBox="0 0 32 32" fill="none" xmlns="http://www.w3.org/2000/svg">
<rect width="32" height="32" rx="8" fill="url(#paint0_linear_2_1896)"/>
<g clip-path="url(#clip0_2_1896)">
<path d="M18.3077 26.3077H4.46154C4.20654 26.3077 4 26.1012 4 25.8462V15.6923C4 15.4373 4.20654 15.2308 4.46154 15.2308H18.3077C18.5627 15.2308 18.7692 15.4373 18.7692 15.6923V25.8462C18.7692 26.1012 18.5627 26.3077 18.3077 26.3077ZM4.92308 25.3846H17.8462V16.1538H4.92308V25.3846Z" fill="white"/>
<path d="M18.3077 26.3077H4.46154C4.20654 26.3077 4 26.1012 4 25.8462V15.6923C4 15.4373 4.20654 15.2308 4.46154 15.2308H18.3077C18.5627 15.2308 18.7692 15.4373 18.7692 15.6923V25.8462C18.7692 26.1012 18.5627 26.3077 18.3077 26.3077ZM4.92308 25.3846H17.8462V16.1539H4.92308V25.3846Z" fill="white"/>
<path d="M18.079 24.5385L14.4161 21.3262C14.2807 21.2113 14.1322 21.1251 13.9706 21.0677C13.8133 21.0062 13.6539 20.9754 13.4923 20.9754C13.3219 20.9754 13.1603 21.0041 13.0074 21.0616C12.8545 21.1149 12.7081 21.201 12.5684 21.32L9.77046 23.6646L8.63033 22.6985C8.49928 22.5918 8.36387 22.5098 8.22408 22.4523C8.08429 22.3949 7.94014 22.3662 7.79162 22.3662C7.64746 22.3662 7.50986 22.3949 7.37881 22.4523C7.25213 22.5057 7.12545 22.5857 6.99877 22.6923L4.69231 24.6123C4.70104 25.1662 4.86049 25.5867 5.17064 25.8739C5.48079 26.1651 5.92854 26.3108 6.51389 26.3108H16.0936C16.8012 26.3108 17.3233 26.159 17.6596 25.8554C17.996 25.5518 18.1358 25.1128 18.079 24.5385ZM9.01693 21.5539C9.29213 21.5539 9.54331 21.4882 9.77046 21.3569C10.002 21.2257 10.1854 21.0533 10.3209 20.84C10.4607 20.6226 10.5305 20.3826 10.5305 20.12C10.5305 19.8616 10.4607 19.6236 10.3209 19.4062C10.1854 19.1887 10.002 19.0164 9.77046 18.8892C9.54331 18.758 9.29213 18.6923 9.01693 18.6923C8.73299 18.6923 8.47526 18.758 8.24374 18.8892C8.01658 19.0164 7.83312 19.1887 7.69333 19.4062C7.55791 19.6236 7.4902 19.8616 7.4902 20.12C7.4902 20.3826 7.55791 20.6226 7.69333 20.84C7.83312 21.0533 8.01658 21.2257 8.24374 21.3569C8.47526 21.4882 8.73299 21.5539 9.01693 21.5539Z" fill="white"/>
<mask id="path-5-outside-1_2_1896" maskUnits="userSpaceOnUse" x="5.76923" y="5" width="23" height="17" fill="black">
<rect fill="white" x="5.76923" y="5" width="23" height="17"/>
<path d="M7.23077 13.3846C6.97577 13.3846 6.76923 13.1781 6.76923 12.9231V12C6.76923 11.745 6.97577 11.5385 7.23077 11.5385C7.48577 11.5385 7.69231 11.745 7.69231 12V12.9231C7.69231 13.1781 7.48577 13.3846 7.23077 13.3846Z"/>
<path d="M7.23077 16.1538C6.97577 16.1538 6.76923 15.9473 6.76923 15.6923V14.7692C6.76923 14.5142 6.97577 14.3077 7.23077 14.3077C7.48577 14.3077 7.69231 14.5142 7.69231 14.7692V15.6923C7.69231 15.9473 7.48577 16.1538 7.23077 16.1538Z"/>
<path d="M7.23077 10.6154C6.97577 10.6154 6.76923 10.4088 6.76923 10.1538V9.23077C6.76923 8.97577 6.97577 8.76923 7.23077 8.76923C7.48577 8.76923 7.69231 8.97577 7.69231 9.23077V10.1538C7.69231 10.4088 7.48577 10.6154 7.23077 10.6154Z"/>
<path d="M27.5385 13.3846C27.2835 13.3846 27.0769 13.1781 27.0769 12.9231V12C27.0769 11.745 27.2835 11.5385 27.5385 11.5385C27.7935 11.5385 28 11.745 28 12V12.9231C28 13.1781 27.7935 13.3846 27.5385 13.3846Z"/>
<path d="M27.5385 16.1538C27.2835 16.1538 27.0769 15.9473 27.0769 15.6923V14.7692C27.0769 14.5142 27.2835 14.3077 27.5385 14.3077C27.7935 14.3077 28 14.5142 28 14.7692V15.6923C28 15.9473 27.7935 16.1538 27.5385 16.1538Z"/>
<path d="M27.5385 18.9231C27.2835 18.9231 27.0769 18.7165 27.0769 18.4615V17.5385C27.0769 17.2835 27.2835 17.0769 27.5385 17.0769C27.7935 17.0769 28 17.2835 28 17.5385V18.4615C28 18.7165 27.7935 18.9231 27.5385 18.9231Z"/>
<path d="M27.5385 10.6154C27.2835 10.6154 27.0769 10.4088 27.0769 10.1538V9.23077C27.0769 8.97577 27.2835 8.76923 27.5385 8.76923C27.7935 8.76923 28 8.97577 28 9.23077V10.1538C28 10.4088 27.7935 10.6154 27.5385 10.6154Z"/>
<path d="M27.5385 21.6923H26.6154C26.3604 21.6923 26.1538 21.4858 26.1538 21.2308C26.1538 20.9758 26.3604 20.7692 26.6154 20.7692H27.0769V20.3077C27.0769 20.0527 27.2835 19.8462 27.5385 19.8462C27.7935 19.8462 28 20.0527 28 20.3077V21.2308C28 21.4858 27.7935 21.6923 27.5385 21.6923Z"/>
<path d="M7.23077 7.84615C6.97577 7.84615 6.76923 7.63962 6.76923 7.38462V6.46154C6.76923 6.20654 6.97577 6 7.23077 6H8.15385C8.40885 6 8.61538 6.20654 8.61538 6.46154C8.61538 6.71654 8.40885 6.92308 8.15385 6.92308H7.69231V7.38462C7.69231 7.63962 7.48577 7.84615 7.23077 7.84615Z"/>
<path d="M10.9242 6.92308H10.0012C9.74615 6.92308 9.53961 6.71654 9.53961 6.46154C9.53961 6.20654 9.74615 6 10.0012 6H10.9242C11.1792 6 11.3858 6.20654 11.3858 6.46154C11.3858 6.71654 11.1792 6.92308 10.9242 6.92308Z"/>
<path d="M13.6935 6.92308H12.7704C12.5154 6.92308 12.3088 6.71654 12.3088 6.46154C12.3088 6.20654 12.5154 6 12.7704 6H13.6935C13.9485 6 14.155 6.20654 14.155 6.46154C14.155 6.71654 13.9485 6.92308 13.6935 6.92308Z"/>
<path d="M16.4627 6.92308H15.5396C15.2846 6.92308 15.0781 6.71654 15.0781 6.46154C15.0781 6.20654 15.2846 6 15.5396 6H16.4627C16.7177 6 16.9242 6.20654 16.9242 6.46154C16.9242 6.71654 16.7177 6.92308 16.4627 6.92308Z"/>
<path d="M19.2319 6.92308H18.3088C18.0538 6.92308 17.8473 6.71654 17.8473 6.46154C17.8473 6.20654 18.0538 6 18.3088 6H19.2319C19.4869 6 19.6935 6.20654 19.6935 6.46154C19.6935 6.71654 19.4869 6.92308 19.2319 6.92308Z"/>
<path d="M22.0012 6.92308H21.0781C20.8231 6.92308 20.6165 6.71654 20.6165 6.46154C20.6165 6.20654 20.8231 6 21.0781 6H22.0012C22.2562 6 22.4627 6.20654 22.4627 6.46154C22.4627 6.71654 22.2562 6.92308 22.0012 6.92308Z"/>
<path d="M24.7704 6.92308H23.8473C23.5923 6.92308 23.3858 6.71654 23.3858 6.46154C23.3858 6.20654 23.5923 6 23.8473 6H24.7704C25.0254 6 25.2319 6.20654 25.2319 6.46154C25.2319 6.71654 25.0254 6.92308 24.7704 6.92308Z"/>
<path d="M22.0012 21.6923H21.0781C20.8231 21.6923 20.6165 21.4858 20.6165 21.2308C20.6165 20.9758 20.8231 20.7692 21.0781 20.7692H22.0012C22.2562 20.7692 22.4627 20.9758 22.4627 21.2308C22.4627 21.4858 22.2562 21.6923 22.0012 21.6923Z"/>
<path d="M19.2319 21.6923H18.3088C18.0538 21.6923 17.8473 21.4858 17.8473 21.2308C17.8473 20.9758 18.0538 20.7692 18.3088 20.7692H19.2319C19.4869 20.7692 19.6935 20.9758 19.6935 21.2308C19.6935 21.4858 19.4869 21.6923 19.2319 21.6923Z"/>
<path d="M24.7704 21.6923H23.8473C23.5923 21.6923 23.3858 21.4858 23.3858 21.2308C23.3858 20.9758 23.5923 20.7692 23.8473 20.7692H24.7704C25.0254 20.7692 25.2319 20.9758 25.2319 21.2308C25.2319 21.4858 25.0254 21.6923 24.7704 21.6923Z"/>
<path d="M27.5385 7.84615C27.2835 7.84615 27.0769 7.63962 27.0769 7.38462V6.92308H26.6154C26.3604 6.92308 26.1538 6.71654 26.1538 6.46154C26.1538 6.20654 26.3604 6 26.6154 6H27.5385C27.7935 6 28 6.20654 28 6.46154V7.38462C28 7.63962 27.7935 7.84615 27.5385 7.84615Z"/>
</mask>
<path d="M7.23077 13.3846C6.97577 13.3846 6.76923 13.1781 6.76923 12.9231V12C6.76923 11.745 6.97577 11.5385 7.23077 11.5385C7.48577 11.5385 7.69231 11.745 7.69231 12V12.9231C7.69231 13.1781 7.48577 13.3846 7.23077 13.3846Z" fill="white"/>
<path d="M7.23077 16.1538C6.97577 16.1538 6.76923 15.9473 6.76923 15.6923V14.7692C6.76923 14.5142 6.97577 14.3077 7.23077 14.3077C7.48577 14.3077 7.69231 14.5142 7.69231 14.7692V15.6923C7.69231 15.9473 7.48577 16.1538 7.23077 16.1538Z" fill="white"/>
<path d="M7.23077 10.6154C6.97577 10.6154 6.76923 10.4088 6.76923 10.1538V9.23077C6.76923 8.97577 6.97577 8.76923 7.23077 8.76923C7.48577 8.76923 7.69231 8.97577 7.69231 9.23077V10.1538C7.69231 10.4088 7.48577 10.6154 7.23077 10.6154Z" fill="white"/>
<path d="M27.5385 13.3846C27.2835 13.3846 27.0769 13.1781 27.0769 12.9231V12C27.0769 11.745 27.2835 11.5385 27.5385 11.5385C27.7935 11.5385 28 11.745 28 12V12.9231C28 13.1781 27.7935 13.3846 27.5385 13.3846Z" fill="white"/>
<path d="M27.5385 16.1538C27.2835 16.1538 27.0769 15.9473 27.0769 15.6923V14.7692C27.0769 14.5142 27.2835 14.3077 27.5385 14.3077C27.7935 14.3077 28 14.5142 28 14.7692V15.6923C28 15.9473 27.7935 16.1538 27.5385 16.1538Z" fill="white"/>
<path d="M27.5385 18.9231C27.2835 18.9231 27.0769 18.7165 27.0769 18.4615V17.5385C27.0769 17.2835 27.2835 17.0769 27.5385 17.0769C27.7935 17.0769 28 17.2835 28 17.5385V18.4615C28 18.7165 27.7935 18.9231 27.5385 18.9231Z" fill="white"/>
<path d="M27.5385 10.6154C27.2835 10.6154 27.0769 10.4088 27.0769 10.1538V9.23077C27.0769 8.97577 27.2835 8.76923 27.5385 8.76923C27.7935 8.76923 28 8.97577 28 9.23077V10.1538C28 10.4088 27.7935 10.6154 27.5385 10.6154Z" fill="white"/>
<path d="M27.5385 21.6923H26.6154C26.3604 21.6923 26.1538 21.4858 26.1538 21.2308C26.1538 20.9758 26.3604 20.7692 26.6154 20.7692H27.0769V20.3077C27.0769 20.0527 27.2835 19.8462 27.5385 19.8462C27.7935 19.8462 28 20.0527 28 20.3077V21.2308C28 21.4858 27.7935 21.6923 27.5385 21.6923Z" fill="white"/>
<path d="M7.23077 7.84615C6.97577 7.84615 6.76923 7.63962 6.76923 7.38462V6.46154C6.76923 6.20654 6.97577 6 7.23077 6H8.15385C8.40885 6 8.61538 6.20654 8.61538 6.46154C8.61538 6.71654 8.40885 6.92308 8.15385 6.92308H7.69231V7.38462C7.69231 7.63962 7.48577 7.84615 7.23077 7.84615Z" fill="white"/>
<path d="M10.9242 6.92308H10.0012C9.74615 6.92308 9.53961 6.71654 9.53961 6.46154C9.53961 6.20654 9.74615 6 10.0012 6H10.9242C11.1792 6 11.3858 6.20654 11.3858 6.46154C11.3858 6.71654 11.1792 6.92308 10.9242 6.92308Z" fill="white"/>
<path d="M13.6935 6.92308H12.7704C12.5154 6.92308 12.3088 6.71654 12.3088 6.46154C12.3088 6.20654 12.5154 6 12.7704 6H13.6935C13.9485 6 14.155 6.20654 14.155 6.46154C14.155 6.71654 13.9485 6.92308 13.6935 6.92308Z" fill="white"/>
<path d="M16.4627 6.92308H15.5396C15.2846 6.92308 15.0781 6.71654 15.0781 6.46154C15.0781 6.20654 15.2846 6 15.5396 6H16.4627C16.7177 6 16.9242 6.20654 16.9242 6.46154C16.9242 6.71654 16.7177 6.92308 16.4627 6.92308Z" fill="white"/>
<path d="M19.2319 6.92308H18.3088C18.0538 6.92308 17.8473 6.71654 17.8473 6.46154C17.8473 6.20654 18.0538 6 18.3088 6H19.2319C19.4869 6 19.6935 6.20654 19.6935 6.46154C19.6935 6.71654 19.4869 6.92308 19.2319 6.92308Z" fill="white"/>
<path d="M22.0012 6.92308H21.0781C20.8231 6.92308 20.6165 6.71654 20.6165 6.46154C20.6165 6.20654 20.8231 6 21.0781 6H22.0012C22.2562 6 22.4627 6.20654 22.4627 6.46154C22.4627 6.71654 22.2562 6.92308 22.0012 6.92308Z" fill="white"/>
<path d="M24.7704 6.92308H23.8473C23.5923 6.92308 23.3858 6.71654 23.3858 6.46154C23.3858 6.20654 23.5923 6 23.8473 6H24.7704C25.0254 6 25.2319 6.20654 25.2319 6.46154C25.2319 6.71654 25.0254 6.92308 24.7704 6.92308Z" fill="white"/>
<path d="M22.0012 21.6923H21.0781C20.8231 21.6923 20.6165 21.4858 20.6165 21.2308C20.6165 20.9758 20.8231 20.7692 21.0781 20.7692H22.0012C22.2562 20.7692 22.4627 20.9758 22.4627 21.2308C22.4627 21.4858 22.2562 21.6923 22.0012 21.6923Z" fill="white"/>
<path d="M19.2319 21.6923H18.3088C18.0538 21.6923 17.8473 21.4858 17.8473 21.2308C17.8473 20.9758 18.0538 20.7692 18.3088 20.7692H19.2319C19.4869 20.7692 19.6935 20.9758 19.6935 21.2308C19.6935 21.4858 19.4869 21.6923 19.2319 21.6923Z" fill="white"/>
<path d="M24.7704 21.6923H23.8473C23.5923 21.6923 23.3858 21.4858 23.3858 21.2308C23.3858 20.9758 23.5923 20.7692 23.8473 20.7692H24.7704C25.0254 20.7692 25.2319 20.9758 25.2319 21.2308C25.2319 21.4858 25.0254 21.6923 24.7704 21.6923Z" fill="white"/>
<path d="M27.5385 7.84615C27.2835 7.84615 27.0769 7.63962 27.0769 7.38462V6.92308H26.6154C26.3604 6.92308 26.1538 6.71654 26.1538 6.46154C26.1538 6.20654 26.3604 6 26.6154 6H27.5385C27.7935 6 28 6.20654 28 6.46154V7.38462C28 7.63962 27.7935 7.84615 27.5385 7.84615Z" fill="white"/>
<path d="M7.23077 13.3846C6.97577 13.3846 6.76923 13.1781 6.76923 12.9231V12C6.76923 11.745 6.97577 11.5385 7.23077 11.5385C7.48577 11.5385 7.69231 11.745 7.69231 12V12.9231C7.69231 13.1781 7.48577 13.3846 7.23077 13.3846Z" stroke="white" stroke-width="0.2" mask="url(#path-5-outside-1_2_1896)"/>
<path d="M7.23077 16.1538C6.97577 16.1538 6.76923 15.9473 6.76923 15.6923V14.7692C6.76923 14.5142 6.97577 14.3077 7.23077 14.3077C7.48577 14.3077 7.69231 14.5142 7.69231 14.7692V15.6923C7.69231 15.9473 7.48577 16.1538 7.23077 16.1538Z" stroke="white" stroke-width="0.2" mask="url(#path-5-outside-1_2_1896)"/>
<path d="M7.23077 10.6154C6.97577 10.6154 6.76923 10.4088 6.76923 10.1538V9.23077C6.76923 8.97577 6.97577 8.76923 7.23077 8.76923C7.48577 8.76923 7.69231 8.97577 7.69231 9.23077V10.1538C7.69231 10.4088 7.48577 10.6154 7.23077 10.6154Z" stroke="white" stroke-width="0.2" mask="url(#path-5-outside-1_2_1896)"/>
<path d="M27.5385 13.3846C27.2835 13.3846 27.0769 13.1781 27.0769 12.9231V12C27.0769 11.745 27.2835 11.5385 27.5385 11.5385C27.7935 11.5385 28 11.745 28 12V12.9231C28 13.1781 27.7935 13.3846 27.5385 13.3846Z" stroke="white" stroke-width="0.2" mask="url(#path-5-outside-1_2_1896)"/>
<path d="M27.5385 16.1538C27.2835 16.1538 27.0769 15.9473 27.0769 15.6923V14.7692C27.0769 14.5142 27.2835 14.3077 27.5385 14.3077C27.7935 14.3077 28 14.5142 28 14.7692V15.6923C28 15.9473 27.7935 16.1538 27.5385 16.1538Z" stroke="white" stroke-width="0.2" mask="url(#path-5-outside-1_2_1896)"/>
<path d="M27.5385 18.9231C27.2835 18.9231 27.0769 18.7165 27.0769 18.4615V17.5385C27.0769 17.2835 27.2835 17.0769 27.5385 17.0769C27.7935 17.0769 28 17.2835 28 17.5385V18.4615C28 18.7165 27.7935 18.9231 27.5385 18.9231Z" stroke="white" stroke-width="0.2" mask="url(#path-5-outside-1_2_1896)"/>
<path d="M27.5385 10.6154C27.2835 10.6154 27.0769 10.4088 27.0769 10.1538V9.23077C27.0769 8.97577 27.2835 8.76923 27.5385 8.76923C27.7935 8.76923 28 8.97577 28 9.23077V10.1538C28 10.4088 27.7935 10.6154 27.5385 10.6154Z" stroke="white" stroke-width="0.2" mask="url(#path-5-outside-1_2_1896)"/>
<path d="M27.5385 21.6923H26.6154C26.3604 21.6923 26.1538 21.4858 26.1538 21.2308C26.1538 20.9758 26.3604 20.7692 26.6154 20.7692H27.0769V20.3077C27.0769 20.0527 27.2835 19.8462 27.5385 19.8462C27.7935 19.8462 28 20.0527 28 20.3077V21.2308C28 21.4858 27.7935 21.6923 27.5385 21.6923Z" stroke="white" stroke-width="0.2" mask="url(#path-5-outside-1_2_1896)"/>
<path d="M7.23077 7.84615C6.97577 7.84615 6.76923 7.63962 6.76923 7.38462V6.46154C6.76923 6.20654 6.97577 6 7.23077 6H8.15385C8.40885 6 8.61538 6.20654 8.61538 6.46154C8.61538 6.71654 8.40885 6.92308 8.15385 6.92308H7.69231V7.38462C7.69231 7.63962 7.48577 7.84615 7.23077 7.84615Z" stroke="white" stroke-width="0.2" mask="url(#path-5-outside-1_2_1896)"/>
<path d="M10.9242 6.92308H10.0012C9.74615 6.92308 9.53961 6.71654 9.53961 6.46154C9.53961 6.20654 9.74615 6 10.0012 6H10.9242C11.1792 6 11.3858 6.20654 11.3858 6.46154C11.3858 6.71654 11.1792 6.92308 10.9242 6.92308Z" stroke="white" stroke-width="0.2" mask="url(#path-5-outside-1_2_1896)"/>
<path d="M13.6935 6.92308H12.7704C12.5154 6.92308 12.3088 6.71654 12.3088 6.46154C12.3088 6.20654 12.5154 6 12.7704 6H13.6935C13.9485 6 14.155 6.20654 14.155 6.46154C14.155 6.71654 13.9485 6.92308 13.6935 6.92308Z" stroke="white" stroke-width="0.2" mask="url(#path-5-outside-1_2_1896)"/>
<path d="M16.4627 6.92308H15.5396C15.2846 6.92308 15.0781 6.71654 15.0781 6.46154C15.0781 6.20654 15.2846 6 15.5396 6H16.4627C16.7177 6 16.9242 6.20654 16.9242 6.46154C16.9242 6.71654 16.7177 6.92308 16.4627 6.92308Z" stroke="white" stroke-width="0.2" mask="url(#path-5-outside-1_2_1896)"/>
<path d="M19.2319 6.92308H18.3088C18.0538 6.92308 17.8473 6.71654 17.8473 6.46154C17.8473 6.20654 18.0538 6 18.3088 6H19.2319C19.4869 6 19.6935 6.20654 19.6935 6.46154C19.6935 6.71654 19.4869 6.92308 19.2319 6.92308Z" stroke="white" stroke-width="0.2" mask="url(#path-5-outside-1_2_1896)"/>
<path d="M22.0012 6.92308H21.0781C20.8231 6.92308 20.6165 6.71654 20.6165 6.46154C20.6165 6.20654 20.8231 6 21.0781 6H22.0012C22.2562 6 22.4627 6.20654 22.4627 6.46154C22.4627 6.71654 22.2562 6.92308 22.0012 6.92308Z" stroke="white" stroke-width="0.2" mask="url(#path-5-outside-1_2_1896)"/>
<path d="M24.7704 6.92308H23.8473C23.5923 6.92308 23.3858 6.71654 23.3858 6.46154C23.3858 6.20654 23.5923 6 23.8473 6H24.7704C25.0254 6 25.2319 6.20654 25.2319 6.46154C25.2319 6.71654 25.0254 6.92308 24.7704 6.92308Z" stroke="white" stroke-width="0.2" mask="url(#path-5-outside-1_2_1896)"/>
<path d="M22.0012 21.6923H21.0781C20.8231 21.6923 20.6165 21.4858 20.6165 21.2308C20.6165 20.9758 20.8231 20.7692 21.0781 20.7692H22.0012C22.2562 20.7692 22.4627 20.9758 22.4627 21.2308C22.4627 21.4858 22.2562 21.6923 22.0012 21.6923Z" stroke="white" stroke-width="0.2" mask="url(#path-5-outside-1_2_1896)"/>
<path d="M19.2319 21.6923H18.3088C18.0538 21.6923 17.8473 21.4858 17.8473 21.2308C17.8473 20.9758 18.0538 20.7692 18.3088 20.7692H19.2319C19.4869 20.7692 19.6935 20.9758 19.6935 21.2308C19.6935 21.4858 19.4869 21.6923 19.2319 21.6923Z" stroke="white" stroke-width="0.2" mask="url(#path-5-outside-1_2_1896)"/>
<path d="M24.7704 21.6923H23.8473C23.5923 21.6923 23.3858 21.4858 23.3858 21.2308C23.3858 20.9758 23.5923 20.7692 23.8473 20.7692H24.7704C25.0254 20.7692 25.2319 20.9758 25.2319 21.2308C25.2319 21.4858 25.0254 21.6923 24.7704 21.6923Z" stroke="white" stroke-width="0.2" mask="url(#path-5-outside-1_2_1896)"/>
<path d="M27.5385 7.84615C27.2835 7.84615 27.0769 7.63962 27.0769 7.38462V6.92308H26.6154C26.3604 6.92308 26.1538 6.71654 26.1538 6.46154C26.1538 6.20654 26.3604 6 26.6154 6H27.5385C27.7935 6 28 6.20654 28 6.46154V7.38462C28 7.63962 27.7935 7.84615 27.5385 7.84615Z" stroke="white" stroke-width="0.2" mask="url(#path-5-outside-1_2_1896)"/>
<path d="M24.7692 13.3858C24.5142 13.3858 24.3077 13.1792 24.3077 12.9242V9.69346H21.0769C20.8219 9.69346 20.6154 9.48692 20.6154 9.23192C20.6154 8.97692 20.8219 8.77038 21.0769 8.77038H24.7692C25.0242 8.77038 25.2308 8.97692 25.2308 9.23192V12.9242C25.2308 13.1792 25.0242 13.3858 24.7692 13.3858Z" fill="white"/>
<path d="M20.1538 14.3077C20.0362 14.3077 19.9173 14.2627 19.8273 14.1727C19.6473 13.9927 19.6473 13.7008 19.8273 13.5196L24.4427 8.90423C24.6227 8.72423 24.9158 8.72423 25.0958 8.90423C25.2758 9.08423 25.2758 9.37615 25.0958 9.55731L20.4804 14.1727C20.3904 14.2627 20.2727 14.3077 20.1538 14.3077Z" fill="white"/>
</g>
<defs>
<linearGradient id="paint0_linear_2_1896" x1="16" y1="32" x2="16" y2="0" gradientUnits="userSpaceOnUse">
<stop stop-color="#43DDEB"/>
<stop offset="1" stop-color="#00D77C"/>
</linearGradient>
<clipPath id="clip0_2_1896">
<rect width="24" height="20.3077" fill="white" transform="translate(4 6)"/>
</clipPath>
</defs>
</svg>
