<svg viewBox="0 0 32 32" fill="none" xmlns="http://www.w3.org/2000/svg">
<g clip-path="url(#clip0_2225_100500)">
<path d="M23.6938 31.9468H8.30616C3.72712 31.9468 0 28.2196 0 23.6406V8.30616C0 3.72712 3.72712 0 8.30616 0H23.6938C28.2729 0 32 3.72712 32 8.30616V23.6938C31.9468 28.2196 28.2729 31.9468 23.6938 31.9468Z" fill="#0080FF"/>
<path d="M11.8739 24.492L5.75074 27.6867C4.84558 28.1659 3.83393 27.1543 4.31314 26.2491L7.50781 20.126L11.8739 24.492Z" fill="white"/>
<path d="M24.7472 11.5958L20.3799 7.22852L8.33212 19.2763L12.6994 23.6436L24.7472 11.5958Z" fill="white"/>
<path d="M27.2085 6.33645L25.6644 4.79236C24.8658 3.99369 23.6411 3.99369 22.8425 4.79236L21.2451 6.3897L25.6112 10.7558L27.2085 9.15842C28.0072 8.35975 28.0072 7.08188 27.2085 6.33645Z" fill="white"/>
</g>
<defs>
<clipPath id="clip0_2225_100500">
<rect width="32" height="32" fill="white"/>
</clipPath>
</defs>
</svg>
